#!OML:ASF E:\Style4\Style4.ASF
:FULLY-SPECIFIED
:DEGREES
1060
root -0.0762234 17.1565 -1.63842 7.51626 1.14382 4.03062
lowerback 5.96039 1.64654 0.241695
upperback 0.34527 2.15392 -1.80491
thorax -2.90588 1.05886 -2.17531
lowerneck 2.51748 -4.95989 -8.21518
upperneck 7.17118 -6.97385 5.38526
head 2.41123 -3.58234 3.09914
rclavicle 2.90226e-014 -1.39149e-014
rhumerus -90.9167 56.4494 -128.185
rradius 86.452
rwrist 2.12273
rhand -15.8762 37.0122
rfingers 7.12502
rthumb 10.3196 7.28535
lclavicle 2.90226e-014 -1.39149e-014
lhumerus -39.2959 25.2686 25.1746
lradius 120.084
lwrist -16.5822
lhand -10.9016 35.6922
lfingers 7.12502
lthumb 15.1153 65.1203
rfemur -28.448 -1.61885 14.0705
rtibia 49.155
rfoot -26.2563 -14.8446
rtoes -11.512
lfemur -26.6013 -1.74669 -23.004
ltibia 45.314
lfoot -24.8674 6.10716
ltoes -17.2102
1061
root -0.0769979 17.1551 -1.63772 7.513 1.13376 3.9778
lowerback 5.96807 1.62116 0.229223
upperback 0.351702 2.12 -1.77983
thorax -2.90624 1.04227 -2.13978
lowerneck 2.57734 -4.908 -8.24109
upperneck 7.07822 -6.9055 5.36505
head 2.36401 -3.54944 3.10084
rclavicle -3.37934e-015 6.75868e-015
rhumerus -90.9636 56.4535 -128.199
rradius 86.4231
rwrist 2.14417
rhand -16.0212 37.1052
rfingers 7.12502
rthumb 10.1797 7.37145
lclavicle -3.37934e-015 6.75868e-015
lhumerus -39.4462 25.2577 25.1008
lradius 119.845
lwrist -16.5435
lhand -10.6773 35.3257
lfingers 7.12502
lthumb 15.3314 64.7374
rfemur -28.4547 -1.57415 14.1312
rtibia 49.1824
rfoot -26.3104 -14.8125
rtoes -11.3733
lfemur -26.6111 -1.739 -22.943
ltibia 45.3424
lfoot -24.9334 6.17166
ltoes -17.4092
1062
root -0.0764443 17.1538 -1.63749 7.52322 1.11005 3.97912
lowerback 5.9889 1.60129 0.165808
upperback 0.340278 2.08908 -1.77358
thorax -2.93336 1.02743 -2.09622
lowerneck 2.63972 -4.85909 -8.22125
upperneck 7.01389 -6.84027 5.31889
head 2.32282 -3.51754 3.08478
rclavicle 9.59136e-015 -2.127e-014
rhumerus -91.0596 56.4872 -128.281
rradius 86.3688
rwrist 2.13149
rhand -16.2377 37.2219
rfingers 7.12502
rthumb 9.97085 7.47809
lclavicle 9.59136e-015 -2.127e-014
lhumerus -39.5944 25.2854 24.9694
lradius 119.719
lwrist -16.122
lhand -10.3595 34.9584
lfingers 7.12502
lthumb 15.6374 64.3464
rfemur -28.4908 -1.57238 14.1266
rtibia 49.2104
rfoot -26.315 -14.7682
rtoes -11.3962
lfemur -26.619 -1.75905 -22.9348
ltibia 45.3473
lfoot -24.9586 6.02233
ltoes -16.7557
1063
root -0.0752258 17.1526 -1.63604 7.54557 1.05989 3.99358
lowerback 6.01115 1.60175 0.0881381
upperback 0.309862 2.0839 -1.76969
thorax -2.98032 1.02538 -2.04969
lowerneck 2.72916 -4.83138 -8.17038
upperneck 6.91412 -6.80271 5.24513
head 2.26436 -3.49905 3.0535
rclavicle 1.97791e-014 -6.16232e-015
rhumerus -91.0921 56.4482 -128.268
rradius 86.2889
rwrist 2.13025
rhand -16.3842 37.3968
rfingers 7.12502
rthumb 9.82954 7.6462
lclavicle 1.97791e-014 -6.16232e-015
lhumerus -39.7062 25.2559 24.888
lradius 119.608
lwrist -15.8136
lhand -10.5045 34.8716
lfingers 7.12502
lthumb 15.4978 64.2704
rfemur -28.5261 -1.56958 14.1007
rtibia 49.227
rfoot -26.3213 -14.7178
rtoes -11.4863
lfemur -26.633 -1.78705 -22.9516
ltibia 45.348
lfoot -25.0214 5.99887
ltoes -16.6492
1064
root -0.0756621 17.153 -1.63504 7.56478 1.00569 3.98695
lowerback 5.99658 1.60686 -0.0019058
upperback 0.311845 2.08523 -1.7523
thorax -2.97392 1.02737 -1.98079
lowerneck 2.73769 -4.80571 -8.11089
upperneck 6.86497 -6.76515 5.20681
head 2.23887 -3.47917 3.03059
rclavicle -1.51573e-014 1.47101e-014
rhumerus -91.106 56.4568 -128.246
rradius 86.2468
rwrist 2.09962
rhand -16.508 37.4319
rfingers 7.12502
rthumb 9.7101 7.67576
lclavicle -1.51573e-014 1.47101e-014
lhumerus -39.7417 25.2824 24.851
lradius 119.482
lwrist -15.7844
lhand -10.575 34.8529
lfingers 7.12502
lthumb 15.4299 64.257
rfemur -28.56 -1.54832 14.1084
rtibia 49.2367
rfoot -26.2676 -14.7686
rtoes -11.6946
lfemur -26.6563 -1.76099 -22.9522
ltibia 45.3628
lfoot -25.0675 6.14305
ltoes -17.1915
1065
root -0.0768098 17.1548 -1.63493 7.5706 0.970357 3.93752
lowerback 6.02015 1.62772 -0.0324538
upperback 0.303216 2.11076 -1.74505
thorax -2.99656 1.04032 -1.95933
lowerneck 2.71806 -4.81622 -8.05557
upperneck 6.91465 -6.77789 5.1975
head 2.25696 -3.4844 3.01598
rclavicle 3.67752e-015 -2.78299e-015
rhumerus -91.0499 56.4099 -128.178
rradius 86.2326
rwrist 2.07281
rhand -16.5558 37.4208
rfingers 7.12502
rthumb 9.66395 7.66247
lclavicle 3.67752e-015 -2.78299e-015
lhumerus -39.6671 25.2706 24.8259
lradius 119.371
lwrist -15.7569
lhand -10.4043 34.7403
lfingers 7.12502
lthumb 15.5943 64.1316
rfemur -28.5823 -1.51444 14.1623
rtibia 49.2368
rfoot -26.2233 -14.802
rtoes -11.697
lfemur -26.6715 -1.71745 -22.9115
ltibia 45.3949
lfoot -25.0258 6.22
ltoes -17.2649
1066
root -0.0772525 17.1534 -1.6353 7.58404 0.938402 3.88451
lowerback 6.0612 1.6579 -0.0549276
upperback 0.256633 2.14857 -1.73709
thorax -3.06756 1.05882 -1.94425
lowerneck 2.83203 -4.81545 -8.05669
upperneck 6.90721 -6.7885 5.25907
head 2.23772 -3.49011 3.04
rclavicle -2.6662e-014 1.90833e-014
rhumerus -91.0223 56.2711 -128.115
rradius 86.1898
rwrist 2.13282
rhand -16.5853 37.4762
rfingers 7.12502
rthumb 9.63546 7.71652
lclavicle -2.6662e-014 1.90833e-014
lhumerus -39.5792 25.2141 24.8168
lradius 119.332
lwrist -15.6471
lhand -10.3949 34.5168
lfingers 7.12502
lthumb 15.6034 63.9074
rfemur -28.6149 -1.48192 14.2214
rtibia 49.2296
rfoot -26.2417 -14.78
rtoes -11.647
lfemur -26.7061 -1.73069 -22.8555
ltibia 45.4354
lfoot -25.0336 6.25482
ltoes -17.0807
1067
root -0.077626 17.1528 -1.63453 7.61599 0.932293 3.88736
lowerback 6.0768 1.67069 -0.144333
upperback 0.206793 2.15899 -1.72264
thorax -3.13131 1.06475 -1.88184
lowerneck 2.88918 -4.80716 -8.12226
upperneck 6.94831 -6.78789 5.33907
head 2.24799 -3.49131 3.08107
rclavicle -2.35063e-014 1.09332e-014
rhumerus -91.0465 56.1743 -128.067
rradius 86.1794
rwrist 2.18166
rhand -16.5083 37.4711
rfingers 7.12502
rthumb 9.70978 7.71489
lclavicle -2.35063e-014 1.09332e-014
lhumerus -39.5327 25.1547 24.762
lradius 119.359
lwrist -15.5264
lhand -10.4805 34.3777
lfingers 7.12502
lthumb 15.5209 63.7748
rfemur -28.6443 -1.50038 14.2214
rtibia 49.2128
rfoot -26.2261 -14.7506
rtoes -11.599
lfemur -26.7493 -1.78159 -22.8541
ltibia 45.4616
lfoot -25.068 6.30915
ltoes -17.1078
1068
root -0.0773888 17.1538 -1.63378 7.63758 0.927633 3.8599
lowerback 6.13931 1.66859 -0.190909
upperback 0.145263 2.15203 -1.69961
thorax -3.23273 1.06126 -1.8351
lowerneck 2.86293 -4.79343 -8.17188
upperneck 7.07527 -6.77414 5.3863
head 2.29876 -3.48571 3.10571
rclavicle -2.01766e-014 -1.03368e-014
rhumerus -91.2308 56.1519 -128.165
rradius 86.2409
rwrist 2.14665
rhand -16.3821 37.4863
rfingers 7.12502
rthumb 9.83155 7.73583
lclavicle -2.01766e-014 -1.03368e-014
lhumerus -39.4859 25.0617 24.6989
lradius 119.345
lwrist -15.5445
lhand -10.6548 34.4346
lfingers 7.12502
lthumb 15.353 63.8446
rfemur -28.6524 -1.5479 14.2552
rtibia 49.1879
rfoot -26.2151 -14.6945
rtoes -11.6047
lfemur -26.7676 -1.80684 -22.8258
ltibia 45.4702
lfoot -25.0269 6.31607
ltoes -16.9985
1069
root -0.0769543 17.1558 -1.63145 7.6498 0.899933 3.84909
lowerback 6.17108 1.66756 -0.274339
upperback 0.106352 2.14486 -1.66602
thorax -3.29532 1.05869 -1.75512
lowerneck 2.81821 -4.79175 -8.26391
upperneck 7.2232 -6.77697 5.44794
head 2.36404 -3.48918 3.14243
rclavicle -1.76421e-015 1.03368e-014
rhumerus -91.4084 56.1825 -128.234
rradius 86.3122
rwrist 2.11745
rhand -16.3879 37.478
rfingers 7.12502
rthumb 9.82596 7.72726
lclavicle -1.76421e-015 1.03368e-014
lhumerus -39.468 24.934 24.6925
lradius 119.34
lwrist -15.8509
lhand -11.0747 34.8217
lfingers 7.12502
lthumb 14.9486 64.2622
rfemur -28.6448 -1.56703 14.2595
rtibia 49.1576
rfoot -26.2122 -14.6503
rtoes -11.5625
lfemur -26.7526 -1.82275 -22.8226
ltibia 45.4535
lfoot -25.0302 6.40798
ltoes -17.3898
